<?xml version="1.0" encoding="iso-8859-1"?>
<!-- Generator: Adobe Illustrator 19.0.0, SVG Export Plug-In . SVG Version: 6.00 Build 0)  -->
<svg version="1.1" id="Capa_1" xmlns="http://www.w3.org/2000/svg" xmlns:xlink="http://www.w3.org/1999/xlink" x="0px" y="0px"
	 viewBox="0 0 512 512" style="enable-background:new 0 0 512 512;" xml:space="preserve">
<g>
	<g>
		<path d="M75,60h15V0H45C20.186,0,0,20.186,0,45v422c0,24.814,20.186,45,45,45h45v-60H75c-8.291,0-15-6.709-15-15
			c0-8.291,6.709-15,15-15h15v-91H75c-8.291,0-15-6.709-15-15c0-8.291,6.709-15,15-15h15v-90H75c-8.291,0-15-6.709-15-15
			s6.709-15,15-15h15V90H75c-8.291,0-15-6.709-15-15S66.709,60,75,60z"/>
	</g>
</g>
<g>
	<g>
		<path d="M270,241c-33.091,0-60,26.909-60,60h120C330,267.909,303.091,241,270,241z"/>
	</g>
</g>
<g>
	<g>
		<path d="M270,151c-16.538,0-30,13.462-30,30c0,16.538,13.462,30,30,30c16.538,0,30-13.462,30-30C300,164.462,286.538,151,270,151z
			"/>
	</g>
</g>
<g>
	<g>
		<path d="M377,0H120v60h15c8.291,0,15,6.709,15,15s-6.709,15-15,15h-15v91h15c8.291,0,15,6.709,15,15s-6.709,15-15,15h-15v90h15
			c8.291,0,15,6.709,15,15c0,8.291-6.709,15-15,15h-15v91h15c8.291,0,15,6.709,15,15c0,8.291-6.709,15-15,15h-15v60h257
			c24.814,0,45-20.186,45-45V45C422,20.186,401.814,0,377,0z M345,391H195c-8.291,0-15-6.709-15-15c0-8.291,6.709-15,15-15h150
			c8.291,0,15,6.709,15,15C360,384.291,353.291,391,345,391z M360,316c0,8.291-6.709,15-15,15H195c-8.291,0-15-6.709-15-15v-15
			c0-33.915,19.074-63.149,46.851-78.488C216.467,211.721,210,197.128,210,181c0-33.091,26.909-60,60-60s60,26.909,60,60
			c0,16.128-6.465,30.721-16.849,41.512C340.928,237.851,360,267.085,360,301V316z"/>
	</g>
</g>
<g>
	<g>
		<path d="M467,60h-15v121h60v-76C512,80.186,491.814,60,467,60z"/>
	</g>
</g>
<g>
	<g>
		<rect x="452" y="211" width="60" height="90"/>
	</g>
</g>
<g>
	<g>
		<path d="M452,331v121h15c24.814,0,45-20.186,45-45v-76H452z"/>
	</g>
</g>
<g>
</g>
<g>
</g>
<g>
</g>
<g>
</g>
<g>
</g>
<g>
</g>
<g>
</g>
<g>
</g>
<g>
</g>
<g>
</g>
<g>
</g>
<g>
</g>
<g>
</g>
<g>
</g>
<g>
</g>
</svg>
