<svg id="Capa_1" enable-background="new 0 0 513.7 513.7" height="512" viewBox="0 0 513.7 513.7" width="512" xmlns="http://www.w3.org/2000/svg"><g><path d="m339.12 156.69c0 18.11-14.73 32.84-32.83 32.84-18.11 0-32.84-14.73-32.84-32.84s14.73-32.84 32.84-32.84c18.1 0 32.83 14.73 32.83 32.84z"/><path d="m209.19 281.87-187.98 187.98h375.96c-7.147-7.148-184.892-184.892-187.98-187.98zm118.31 75.88 112.1 112.1h59.1c8.29 0 15-6.72 15-15v-69.04l-107.13-107.13zm171.2-313.9h-483.7c-8.29 0-15 6.72-15 15v389.78l198.58-198.58c5.86-5.86 15.36-5.86 21.22 0l86.49 86.49 89.68-89.68c5.86-5.86 15.35-5.86 21.21 0l96.52 96.52v-284.53c0-8.28-6.71-15-15-15zm-192.41 175.68c-34.65 0-62.84-28.19-62.84-62.84s28.19-62.84 62.84-62.84c34.64 0 62.83 28.19 62.83 62.84s-28.19 62.84-62.83 62.84z"/></g></svg>