<?xml version="1.0" encoding="iso-8859-1"?>
<!-- Generator: Adobe Illustrator 19.0.0, SVG Export Plug-In . SVG Version: 6.00 Build 0)  -->
<svg version="1.1" id="Capa_1" xmlns="http://www.w3.org/2000/svg" xmlns:xlink="http://www.w3.org/1999/xlink" x="0px" y="0px"
	 viewBox="0 0 512 512" style="enable-background:new 0 0 512 512;" xml:space="preserve">
<g>
	<g>
		<rect x="44" y="352" width="424" height="160"/>
	</g>
</g>
<g>
	<g>
		<rect y="232" width="512" height="90"/>
	</g>
</g>
<g>
	<g>
		<path d="M156,0c-41.355,0-75,33.645-75,75s33.645,75,75,75s75-33.645,75-75S197.355,0,156,0z"/>
	</g>
</g>
<g>
	<g>
		<path d="M238.145,140.322C218.891,164.484,189.225,180,156,180c-33.225,0-62.891-15.516-82.145-39.678
			C62.802,151.98,56,167.706,56,185v17h200v-17C256,167.706,249.198,151.98,238.145,140.322z"/>
	</g>
</g>
<g>
	<g>
		<polygon points="273,41 273,161 353,161 353,202 383,202 383,161 463,161 463,41 		"/>
	</g>
</g>
<g>
</g>
<g>
</g>
<g>
</g>
<g>
</g>
<g>
</g>
<g>
</g>
<g>
</g>
<g>
</g>
<g>
</g>
<g>
</g>
<g>
</g>
<g>
</g>
<g>
</g>
<g>
</g>
<g>
</g>
</svg>
