<svg height="512pt" viewBox="-16 0 512 512" width="512pt" xmlns="http://www.w3.org/2000/svg"><path d="m480 0h-480v241h480zm-210 61c0 16.542969-13.457031 30-30 30s-30-13.457031-30-30c0-16.804688 13.738281-31 30-31s30 14.195312 30 31zm-90 150c0-27.90625 19.152344-51.425781 45-58.101562v43.101562h30v-43.101562c25.847656 6.679687 45 30.195312 45 58.101562zm270 0h-120c0-49.625-40.375-90-90-90s-90 40.375-90 90h-120v-181.011719h158.4375c-5.5 9.339844-8.4375 19.984375-8.4375 31.011719 0 33.085938 26.914062 60 60 60s60-26.914062 60-60c0-11.027344-2.9375-21.664062-8.4375-31h158.4375zm0 0"/><path d="m450 331c0-33.085938-26.914062-60-60-60s-60 26.914062-60 60 26.914062 60 60 60 60-26.914062 60-60zm-60 30c-16.542969 0-30-13.457031-30-30s13.457031-30 30-30 30 13.457031 30 30-13.457031 30-30 30zm0 0"/><path d="m480 482c0-49.914062-40.425781-91-90-91-31.085938 0-58.609375 16.03125-75 40.882812-16.34375-24.777343-43.832031-40.882812-75-40.882812-31.085938 0-58.609375 16.03125-75 40.882812-16.34375-24.777343-43.832031-40.882812-75-40.882812-49.519531 0-90 41.03125-90 91v30h480zm-450 0c0-33.636719 26.914062-61 60-61s60 27.363281 60 61zm150 0c0-33.636719 26.914062-61 60-61s60 27.363281 60 61zm150 0c0-33.636719 26.914062-61 60-61s60 27.363281 60 61zm0 0"/><path d="m300 331c0-33.085938-26.914062-60-60-60s-60 26.914062-60 60 26.914062 60 60 60 60-26.914062 60-60zm-60 30c-16.542969 0-30-13.457031-30-30s13.457031-30 30-30 30 13.457031 30 30-13.457031 30-30 30zm0 0"/><path d="m150 331c0-33.085938-26.914062-60-60-60s-60 26.914062-60 60 26.914062 60 60 60 60-26.914062 60-60zm-60 30c-16.542969 0-30-13.457031-30-30s13.457031-30 30-30 30 13.457031 30 30-13.457031 30-30 30zm0 0"/></svg>